<svg xmlns="http://www.w3.org/2000/svg" xmlns:xlink="http://www.w3.org/1999/xlink" version="1.1" x="0px" y="0px" viewBox="0 0 100 125" enable-background="new 0 0 100 100" xml:space="preserve"><path d="M54.2,57.4l3.3,3.3L55.2,63c-0.9,0.9-0.9,2.3,0,3.2l11.9,11.9c1.5,1.5,3.4,2.3,5.5,2.3c2.1,0,4-0.8,5.5-2.3  c1.5-1.5,2.3-3.4,2.3-5.5s-0.8-4-2.3-5.5l-5.4-5.4c-0.9-0.9-2.3-0.9-3.2,0c-0.9,0.9-0.9,2.3,0,3.2l5.4,5.4c0.6,0.6,1,1.4,1,2.3  c0,0.9-0.3,1.7-1,2.3c-0.6,0.6-1.4,1-2.3,1c-0.9,0-1.7-0.3-2.3-1L60,64.6l6.2-6.2c0.9-0.9,0.9-2.3,0-3.2c-0.9-0.9-2.3-0.9-3.2,0  l-2.3,2.3l-3.3-3.3c6.8-8.3,6.3-20.7-1.5-28.4c-4-4-9.4-6.2-15-6.2c-5.7,0-11,2.2-15,6.2c-8.3,8.3-8.3,21.8,0,30.1  c4,4,9.4,6.2,15,6.2C45.8,62.1,50.5,60.5,54.2,57.4z M29,29c3.2-3.2,7.4-4.9,11.9-4.9c4.5,0,8.7,1.7,11.9,4.9  c6.5,6.5,6.5,17.2,0,23.7c-3.2,3.2-7.4,4.9-11.9,4.9c-4.5,0-8.7-1.7-11.9-4.9C22.4,46.2,22.4,35.5,29,29z"/><text x="0" y="115" fill="#000000" font-size="5px" font-weight="bold" font-family="'Helvetica Neue', Helvetica, Arial-Unicode, Arial, Sans-serif">Created by Gregor Cresnar</text><text x="0" y="120" fill="#000000" font-size="5px" font-weight="bold" font-family="'Helvetica Neue', Helvetica, Arial-Unicode, Arial, Sans-serif">from the Noun Project</text></svg>